# xmcd
#
# Track frame offsets: 
#        150
#        887
#        1187
#        29062
#        29362
#        49202
#        67152
#        67452
#        67752
#        68052
#        68352
#        89387
#        96393
#        112347
#        113781
#        120908
#        132720
#        133020
#        133320
#        133620
#        134520
#        134820
#        153641
#        157009
#
# Disc length: 3060 seconds
#
# Revision: 1
# Processed by: cddbd v1.5.2PL0 Copyright (c) Steve Scherf et al.
# Submitted via: ExactAudioCopy v0.99pb5
#
DISCID=730bf218
DTITLE=phroq - Half-Asleep Music
DYEAR=2008
DGENRE=Noise
TTITLE0=#01
TTITLE1=#02
TTITLE2=#03
TTITLE3=#04
TTITLE4=#05
TTITLE5=#06
TTITLE6=#07
TTITLE7=#08
TTITLE8=#09
TTITLE9=#10
TTITLE10=#11
TTITLE11=#12
TTITLE12=#13
TTITLE13=#14
TTITLE14=#15
TTITLE15=#16
TTITLE16=#17
TTITLE17=#18
TTITLE18=#19
TTITLE19=#20
TTITLE20=#21
TTITLE21=#22
TTITLE22=#23
TTITLE23=#24
EXTD=
EXTT0=
EXTT1=
EXTT2=
EXTT3=
EXTT4=
EXTT5=
EXTT6=
EXTT7=
EXTT8=
EXTT9=
EXTT10=
EXTT11=
EXTT12=
EXTT13=
EXTT14=
EXTT15=
EXTT16=
EXTT17=
EXTT18=
EXTT19=
EXTT20=
EXTT21=
EXTT22=
EXTT23=
PLAYORDER=
